<svg id="visual" viewBox="0 0 900 100" width="900" height="100" xmlns="http://www.w3.org/2000/svg" xmlns:xlink="http://www.w3.org/1999/xlink" version="1.1"><path d="M0 67L21.5 63.2C43 59.3 86 51.7 128.8 45.8C171.7 40 214.3 36 257.2 38.3C300 40.7 343 49.3 385.8 53.7C428.7 58 471.3 58 514.2 53.3C557 48.7 600 39.3 642.8 38.2C685.7 37 728.3 44 771.2 48.7C814 53.3 857 55.7 878.5 56.8L900 58L900 0L878.5 0C857 0 814 0 771.2 0C728.3 0 685.7 0 642.8 0C600 0 557 0 514.2 0C471.3 0 428.7 0 385.8 0C343 0 300 0 257.2 0C214.3 0 171.7 0 128.8 0C86 0 43 0 21.5 0L0 0Z" fill="#D0E1EC" stroke-linecap="round" stroke-linejoin="miter"></path></svg>