<svg id="visual" viewBox="0 0 900 600" width="900" height="600" xmlns="http://www.w3.org/2000/svg" xmlns:xlink="http://www.w3.org/1999/xlink" version="1.1"><path d="M0 175L21.5 179.8C43 184.7 86 194.3 128.8 200.8C171.7 207.3 214.3 210.7 257.2 205.3C300 200 343 186 385.8 180C428.7 174 471.3 176 514.2 186.7C557 197.3 600 216.7 642.8 217.7C685.7 218.7 728.3 201.3 771.2 193.5C814 185.7 857 187.3 878.5 188.2L900 189L900 0L878.5 0C857 0 814 0 771.2 0C728.3 0 685.7 0 642.8 0C600 0 557 0 514.2 0C471.3 0 428.7 0 385.8 0C343 0 300 0 257.2 0C214.3 0 171.7 0 128.8 0C86 0 43 0 21.5 0L0 0Z" fill="#9e6ece"></path><path d="M0 195L21.5 185.8C43 176.7 86 158.3 128.8 159.5C171.7 160.7 214.3 181.3 257.2 186.2C300 191 343 180 385.8 179.5C428.7 179 471.3 189 514.2 182.7C557 176.3 600 153.7 642.8 145.2C685.7 136.7 728.3 142.3 771.2 141C814 139.7 857 131.3 878.5 127.2L900 123L900 0L878.5 0C857 0 814 0 771.2 0C728.3 0 685.7 0 642.8 0C600 0 557 0 514.2 0C471.3 0 428.7 0 385.8 0C343 0 300 0 257.2 0C214.3 0 171.7 0 128.8 0C86 0 43 0 21.5 0L0 0Z" fill="#b05cb9"></path><path d="M0 155L21.5 151.8C43 148.7 86 142.3 128.8 131.2C171.7 120 214.3 104 257.2 96.8C300 89.7 343 91.3 385.8 102.7C428.7 114 471.3 135 514.2 134.2C557 133.3 600 110.7 642.8 104.2C685.7 97.7 728.3 107.3 771.2 110C814 112.7 857 108.3 878.5 106.2L900 104L900 0L878.5 0C857 0 814 0 771.2 0C728.3 0 685.7 0 642.8 0C600 0 557 0 514.2 0C471.3 0 428.7 0 385.8 0C343 0 300 0 257.2 0C214.3 0 171.7 0 128.8 0C86 0 43 0 21.5 0L0 0Z" fill="#bd4aa0"></path><path d="M0 68L21.5 75.3C43 82.7 86 97.3 128.8 105.3C171.7 113.3 214.3 114.7 257.2 105.3C300 96 343 76 385.8 73.2C428.7 70.3 471.3 84.7 514.2 92C557 99.3 600 99.7 642.8 94.5C685.7 89.3 728.3 78.7 771.2 81.5C814 84.3 857 100.7 878.5 108.8L900 117L900 0L878.5 0C857 0 814 0 771.2 0C728.3 0 685.7 0 642.8 0C600 0 557 0 514.2 0C471.3 0 428.7 0 385.8 0C343 0 300 0 257.2 0C214.3 0 171.7 0 128.8 0C86 0 43 0 21.5 0L0 0Z" fill="#c43685"></path><path d="M0 61L21.5 62.3C43 63.7 86 66.3 128.8 64.2C171.7 62 214.3 55 257.2 54C300 53 343 58 385.8 58.7C428.7 59.3 471.3 55.7 514.2 51.2C557 46.7 600 41.3 642.8 43C685.7 44.7 728.3 53.3 771.2 59.2C814 65 857 68 878.5 69.5L900 71L900 0L878.5 0C857 0 814 0 771.2 0C728.3 0 685.7 0 642.8 0C600 0 557 0 514.2 0C471.3 0 428.7 0 385.8 0C343 0 300 0 257.2 0C214.3 0 171.7 0 128.8 0C86 0 43 0 21.5 0L0 0Z" fill="#c62368"></path></svg>