<svg id="visual" viewBox="0 0 900 200" width="900" height="200" xmlns="http://www.w3.org/2000/svg" xmlns:xlink="http://www.w3.org/1999/xlink" version="1.1"><path d="M0 103L21.5 102.5C43 102 86 101 128.8 101.3C171.7 101.7 214.3 103.3 257.2 111C300 118.7 343 132.3 385.8 140C428.7 147.7 471.3 149.3 514.2 142.8C557 136.3 600 121.7 642.8 112.8C685.7 104 728.3 101 771.2 101.8C814 102.7 857 107.3 878.5 109.7L900 112L900 201L878.5 201C857 201 814 201 771.2 201C728.3 201 685.7 201 642.8 201C600 201 557 201 514.2 201C471.3 201 428.7 201 385.8 201C343 201 300 201 257.2 201C214.3 201 171.7 201 128.8 201C86 201 43 201 21.5 201L0 201Z" fill="#9e6ece" stroke-linecap="round" stroke-linejoin="miter"></path></svg>