<svg id="visual" viewBox="0 0 900 100" width="900" height="100" xmlns="http://www.w3.org/2000/svg" xmlns:xlink="http://www.w3.org/1999/xlink" version="1.1"><path d="M0 70L21.5 69.2C43 68.3 86 66.7 128.8 65.5C171.7 64.3 214.3 63.7 257.2 64.5C300 65.3 343 67.7 385.8 68.7C428.7 69.7 471.3 69.3 514.2 67.5C557 65.7 600 62.3 642.8 62.2C685.7 62 728.3 65 771.2 66.3C814 67.7 857 67.3 878.5 67.2L900 67L900 101L878.5 101C857 101 814 101 771.2 101C728.3 101 685.7 101 642.8 101C600 101 557 101 514.2 101C471.3 101 428.7 101 385.8 101C343 101 300 101 257.2 101C214.3 101 171.7 101 128.8 101C86 101 43 101 21.5 101L0 101Z" fill="#9e6ece"></path><path d="M0 66L21.5 67.5C43 69 86 72 128.8 71.8C171.7 71.7 214.3 68.3 257.2 67.7C300 67 343 69 385.8 69.2C428.7 69.3 471.3 67.7 514.2 68.7C557 69.7 600 73.3 642.8 74.7C685.7 76 728.3 75 771.2 75.2C814 75.3 857 76.7 878.5 77.3L900 78L900 101L878.5 101C857 101 814 101 771.2 101C728.3 101 685.7 101 642.8 101C600 101 557 101 514.2 101C471.3 101 428.7 101 385.8 101C343 101 300 101 257.2 101C214.3 101 171.7 101 128.8 101C86 101 43 101 21.5 101L0 101Z" fill="#b05cb9"></path><path d="M0 73L21.5 73.5C43 74 86 75 128.8 76.8C171.7 78.7 214.3 81.3 257.2 82.5C300 83.7 343 83.3 385.8 81.5C428.7 79.7 471.3 76.3 514.2 76.5C557 76.7 600 80.3 642.8 81.3C685.7 82.3 728.3 80.7 771.2 80.3C814 80 857 81 878.5 81.5L900 82L900 101L878.5 101C857 101 814 101 771.2 101C728.3 101 685.7 101 642.8 101C600 101 557 101 514.2 101C471.3 101 428.7 101 385.8 101C343 101 300 101 257.2 101C214.3 101 171.7 101 128.8 101C86 101 43 101 21.5 101L0 101Z" fill="#bd4aa0"></path><path d="M0 88L21.5 86.7C43 85.3 86 82.7 128.8 81.2C171.7 79.7 214.3 79.3 257.2 80.8C300 82.3 343 85.7 385.8 86.2C428.7 86.7 471.3 84.3 514.2 83.2C557 82 600 82 642.8 83C685.7 84 728.3 86 771.2 85.5C814 85 857 82 878.5 80.5L900 79L900 101L878.5 101C857 101 814 101 771.2 101C728.3 101 685.7 101 642.8 101C600 101 557 101 514.2 101C471.3 101 428.7 101 385.8 101C343 101 300 101 257.2 101C214.3 101 171.7 101 128.8 101C86 101 43 101 21.5 101L0 101Z" fill="#c43685"></path><path d="M0 89L21.5 88.7C43 88.3 86 87.7 128.8 88C171.7 88.3 214.3 89.7 257.2 89.8C300 90 343 89 385.8 88.8C428.7 88.7 471.3 89.3 514.2 90.2C557 91 600 92 642.8 91.8C685.7 91.7 728.3 90.3 771.2 89.3C814 88.3 857 87.7 878.5 87.3L900 87L900 101L878.5 101C857 101 814 101 771.2 101C728.3 101 685.7 101 642.8 101C600 101 557 101 514.2 101C471.3 101 428.7 101 385.8 101C343 101 300 101 257.2 101C214.3 101 171.7 101 128.8 101C86 101 43 101 21.5 101L0 101Z" fill="#c62368"></path></svg>